<svg width="128" height="128" viewBox="0 0 128 128" fill="none" xmlns="http://www.w3.org/2000/svg">
<rect width="128" height="128" fill="#1E1E1E"/>
<path d="M63.3813 24.1033C41.6317 24.1033 24 41.7349 24 63.4846C24 85.2342 41.6317 102.866 63.3813 102.866C85.1309 102.866 102.763 85.2342 102.763 63.4846C102.763 41.7349 85.1309 24.1033 63.3813 24.1033ZM63.3813 26.4662C68.3798 26.4662 73.2274 27.4445 77.7898 29.3741C79.9829 30.3017 82.0984 31.4499 84.0773 32.7869C86.0378 34.1114 87.8815 35.6325 89.5572 37.3087C91.2329 38.9844 92.7545 40.8281 94.079 42.7885C95.4159 44.7675 96.5642 46.883 97.4918 49.076C99.4213 53.6384 100.4 58.486 100.4 63.4846C100.4 68.4831 99.4213 73.3307 97.4918 77.8931C96.5642 80.0861 95.4159 82.2012 94.079 84.1801C92.7545 86.141 91.2329 87.9847 89.5572 89.6605C87.8815 91.3362 86.0378 92.8577 84.0773 94.1822C82.0984 95.5192 79.9829 96.6674 77.7898 97.595C73.2274 99.5246 68.3798 100.503 63.3813 100.503C58.3828 100.503 53.5352 99.5246 48.9728 97.595C46.7797 96.6674 44.6642 95.5192 42.6853 94.1822C40.7248 92.8577 38.8811 91.3362 37.2054 89.6605C35.5297 87.9847 34.0081 86.141 32.6836 84.1801C31.3466 82.2012 30.1984 80.0861 29.2708 77.8931C27.3413 73.3307 26.3629 68.4831 26.3629 63.4846C26.3629 58.486 27.3413 53.6384 29.2708 49.076C30.1984 46.883 31.3466 44.7675 32.6836 42.7885C34.0081 40.8281 35.5297 38.9844 37.2054 37.3087C38.8811 35.6325 40.7248 34.1114 42.6853 32.7869C44.6642 31.4499 46.7797 30.3017 48.9728 29.3741C53.5352 27.4445 58.3828 26.4662 63.3813 26.4662Z" fill="white"/>
<path d="M93.3017 48.0216C93.4454 49.0824 93.5262 50.2205 93.5262 51.4461C93.5262 54.8243 92.8918 58.6234 90.9863 63.3748L80.7878 92.7847C90.7154 87.0119 97.3912 76.285 97.3912 63.9986C97.3912 58.2085 95.9078 52.765 93.3017 48.0216ZM64.5863 66.9117L54.5662 95.9474C57.5588 96.8255 60.7223 97.3042 63.9998 97.3042C67.8883 97.3042 71.6186 96.6349 75.0891 95.4158C74.9999 95.2735 74.9173 95.1222 74.8496 94.9569L64.5863 66.9117ZM86.5419 62.3191C86.5419 58.2019 85.059 55.3521 83.7893 53.1345C82.0965 50.39 80.5089 48.068 80.5089 45.3235C80.5089 42.2624 82.8365 39.4126 86.1164 39.4126C86.2648 39.4126 86.4047 39.4304 86.5489 39.4397C80.6079 34.0107 72.6929 30.6958 63.9998 30.6958C52.3339 30.6958 42.0711 36.6657 36.1005 45.7061C36.8842 45.7309 37.6233 45.7469 38.2493 45.7469C41.7414 45.7469 47.149 45.3235 47.149 45.3235C48.9483 45.2181 49.1606 47.8558 47.3626 48.068C47.3626 48.068 45.5529 48.2792 43.5413 48.3841L55.7002 84.459L63.0086 62.6006L57.8067 48.3841C56.0078 48.2792 54.3047 48.068 54.3047 48.068C52.5044 47.9617 52.7152 45.2181 54.5165 45.3235C54.5165 45.3235 60.0296 45.7469 63.3105 45.7469C66.8022 45.7469 72.2107 45.3235 72.2107 45.3235C74.011 45.2181 74.2228 47.8558 72.4239 48.068C72.4239 48.068 70.6123 48.2792 68.6021 48.3841L80.6695 84.1841L84.1142 73.2975C85.6445 68.5396 86.5419 65.169 86.5419 62.3191ZM30.6085 63.9986C30.6085 77.1805 38.2887 88.5734 49.4282 93.971L33.4996 50.4453C31.6471 54.5868 30.6085 59.1705 30.6085 63.9986Z" fill="white"/>
<rect x="69.5" y="69.5" width="43" height="43" rx="21.5" fill="white"/>
<rect x="69.5" y="69.5" width="43" height="43" rx="21.5" stroke="#1E1E1E" stroke-width="3"/>
<g clip-path="url(#clip0_31_2667)">
<path d="M87.9843 87.4925V85.0285C87.9843 84.821 88.0616 84.6653 88.2415 84.5617L93.1546 81.7087C93.8234 81.3197 94.6208 81.1382 95.4438 81.1382C98.5304 81.1382 100.485 83.5504 100.485 86.1179C100.485 86.2994 100.485 86.5069 100.46 86.7145L95.3666 83.7058C95.058 83.5244 94.7492 83.5244 94.4406 83.7058L87.9843 87.4925ZM99.4564 97.0889V91.2013C99.4564 90.8381 99.302 90.5787 98.9934 90.3972L92.5371 86.6106L94.6464 85.3915C94.8264 85.2879 94.9808 85.2879 95.1608 85.3915L100.074 88.2445C101.489 89.0745 102.44 90.8381 102.44 92.5498C102.44 94.5208 101.283 96.3365 99.4564 97.0887V97.0889ZM86.4667 91.9017L84.3575 90.6568C84.1775 90.5532 84.1003 90.3975 84.1003 90.19V84.4841C84.1003 81.709 86.2095 79.608 89.0647 79.608C90.1452 79.608 91.1482 79.9712 91.9972 80.6196L86.9299 83.5764C86.6214 83.7579 86.467 84.0172 86.467 84.3805V91.9019L86.4667 91.9017ZM91.0067 94.5471L87.9843 92.8354V89.2045L91.0067 87.4927L94.029 89.2045V92.8354L91.0067 94.5471ZM92.9488 102.432C91.8683 102.432 90.8654 102.069 90.0163 101.42L95.0835 98.4634C95.3922 98.282 95.5466 98.0226 95.5466 97.6594V90.1379L97.6816 91.3828C97.8616 91.4864 97.9388 91.6421 97.9388 91.8496V97.5555C97.9388 100.331 95.8038 102.432 92.9488 102.432V102.432ZM86.8525 96.6481L81.9394 93.7952C80.5246 92.9651 79.573 91.2015 79.573 89.4898C79.573 87.4927 80.7563 85.7032 82.5824 84.9509V90.8644C82.5824 91.2275 82.7369 91.4869 83.0454 91.6684L89.4761 95.429L87.3669 96.6481C87.1869 96.7517 87.0325 96.7517 86.8525 96.6481ZM86.5697 100.902C83.6631 100.902 81.5281 98.697 81.5281 95.9737C81.5281 95.7662 81.5539 95.5587 81.5795 95.3512L86.6467 98.308C86.9553 98.4895 87.2641 98.4895 87.5727 98.308L94.029 94.5474V97.0113C94.029 97.2188 93.9518 97.3745 93.7717 97.4781L88.8587 100.331C88.1899 100.72 87.3925 100.902 86.5695 100.902H86.5697ZM92.9488 103.988C96.0612 103.988 98.659 101.757 99.2508 98.8006C102.132 98.0484 103.984 95.3251 103.984 92.55C103.984 90.7344 103.212 88.9709 101.823 87.7C101.952 87.1553 102.029 86.6106 102.029 86.0661C102.029 82.3573 99.045 79.582 95.5982 79.582C94.9038 79.582 94.235 79.6856 93.5662 79.9192C92.4085 78.7779 90.8138 78.0518 89.0647 78.0518C85.9523 78.0518 83.3545 80.2821 82.7627 83.2389C79.8819 83.9912 78.0298 86.7145 78.0298 89.4895C78.0298 91.3052 78.8014 93.0687 80.1905 94.3396C80.0619 94.8843 79.9847 95.429 79.9847 95.9735C79.9847 99.6823 82.9685 102.458 86.4153 102.458C87.1097 102.458 87.7785 102.354 88.4473 102.12C89.6047 103.262 91.1995 103.988 92.9488 103.988Z" fill="black"/>
</g>
<defs>
<clipPath id="clip0_31_2667">
<rect width="26" height="26" fill="white" transform="translate(78 78)"/>
</clipPath>
</defs>
</svg>
